<?xml version="1.0" encoding="UTF-8"?>
<svg id="Layer_2" data-name="Layer 2" xmlns="http://www.w3.org/2000/svg" xmlns:xlink="http://www.w3.org/1999/xlink" viewBox="0 0 195.43 364.24">
  <defs>
    <style>
      .cls-1, .cls-2 {
        fill: none;
      }

      .cls-1, .cls-2, .cls-3 {
        stroke-miterlimit: 10;
      }

      .cls-1, .cls-3 {
        stroke: #231f20;
      }

      .cls-4 {
        fill: url(#linear-gradient);
      }

      .cls-4, .cls-5, .cls-6, .cls-7, .cls-8, .cls-9 {
        stroke-width: 0px;
      }

      .cls-5, .cls-3 {
        fill: #274143;
      }

      .cls-2 {
        stroke: #274143;
        stroke-width: 4px;
      }

      .cls-6 {
        fill: url(#linear-gradient-2);
      }

      .cls-7 {
        fill: url(#linear-gradient-3);
      }

      .cls-8 {
        fill: url(#radial-gradient);
      }

      .cls-9 {
        fill: #737c7f;
      }
    </style>
    <linearGradient id="linear-gradient" x1="60.8" y1="44.14" x2="61.5" y2="104.46" gradientTransform="translate(201.81 122.43) rotate(90)" gradientUnits="userSpaceOnUse">
      <stop offset=".13" stop-color="#e99f4d"/>
      <stop offset=".35" stop-color="#e79e4c"/>
      <stop offset=".43" stop-color="#e09a4c"/>
      <stop offset=".49" stop-color="#d4954b"/>
      <stop offset=".53" stop-color="#c38c4b"/>
      <stop offset=".57" stop-color="#ad8249"/>
      <stop offset=".61" stop-color="#927548"/>
      <stop offset=".64" stop-color="#716546"/>
      <stop offset=".67" stop-color="#4d5344"/>
      <stop offset=".69" stop-color="#274143"/>
    </linearGradient>
    <linearGradient id="linear-gradient-2" x1="185.59" y1="194.86" x2="223.99" y2="194.86" gradientTransform="translate(201.81 122.43) rotate(90)" gradientUnits="userSpaceOnUse">
      <stop offset=".24" stop-color="#274143"/>
      <stop offset=".28" stop-color="#284143"/>
      <stop offset=".29" stop-color="#2f4444"/>
      <stop offset=".3" stop-color="#3b4947"/>
      <stop offset=".31" stop-color="#3e4a47"/>
      <stop offset=".32" stop-color="#494f48"/>
      <stop offset=".33" stop-color="#5b584b"/>
      <stop offset=".33" stop-color="#73644e"/>
      <stop offset=".39" stop-color="#7d694d"/>
      <stop offset=".49" stop-color="#9a774d"/>
      <stop offset=".63" stop-color="#c98f4d"/>
      <stop offset=".71" stop-color="#e99f4d"/>
    </linearGradient>
    <linearGradient id="linear-gradient-3" x1="-109.69" y1="194.92" x2="-76.84" y2="194.92" gradientTransform="translate(201.81 122.43) rotate(90)" gradientUnits="userSpaceOnUse">
      <stop offset="0" stop-color="#e99f4d"/>
      <stop offset=".39" stop-color="#e79e4c"/>
      <stop offset=".54" stop-color="#e09a4c"/>
      <stop offset=".64" stop-color="#d4954b"/>
      <stop offset=".72" stop-color="#c38c4b"/>
      <stop offset=".79" stop-color="#ad8249"/>
      <stop offset=".85" stop-color="#927548"/>
      <stop offset=".91" stop-color="#716546"/>
      <stop offset=".96" stop-color="#4d5344"/>
      <stop offset="1" stop-color="#274143"/>
    </linearGradient>
    <radialGradient id="radial-gradient" cx="60.95" cy="181.73" fx="60.95" fy="181.73" r="136.25" gradientTransform="translate(187.38 122.43) rotate(90) scale(1 .92)" gradientUnits="userSpaceOnUse">
      <stop offset="0" stop-color="#fed3a8"/>
      <stop offset=".42" stop-color="#fcd1a7"/>
      <stop offset=".57" stop-color="#f5cda5"/>
      <stop offset=".68" stop-color="#e9c6a1"/>
      <stop offset=".77" stop-color="#d8bb9c"/>
      <stop offset=".84" stop-color="#c2ad96"/>
      <stop offset=".91" stop-color="#a79c8e"/>
      <stop offset=".97" stop-color="#878985"/>
      <stop offset="1" stop-color="#737c7f"/>
    </radialGradient>
  </defs>
  <polyline class="cls-9" points="159.93 178.12 136.03 177.88 136.03 189.17 160.4 189.17 159.06 186.98 158.75 183.53 159.06 181.08 159.93 178.12 159.06 178.12"/>
  <polyline class="cls-4" points="118.09 151.5 117.94 215.88 122.78 215.18 128.22 212.61 132.96 207.82 135.56 201.96 136.09 196.37 136.03 177.88 136 167.88 134.79 162.94 132.55 159.25 129.41 155.52 125.99 152.99 121.96 151.5 118.09 151.5"/>
  <polyline class="cls-6" points="47.73 321.43 42.68 323 33.71 325.31 24.32 326.65 13.91 327.04 -11.31 326.95 -19.21 326.06 -27.11 324.24 -33.83 321.43 -33.67 326.4 -32.33 331.68 -29.31 337.87 -25.21 343.09 -18.64 348.46 -12.32 351.7 -6.4 353.54 -.27 354.55 6.14 354.55 16.72 354.55 26.16 351.6 34.06 347.18 40.76 340.82 43.85 336.64 45.94 331.72 47.58 325.91 47.73 321.43"/>
  <polygon class="cls-7" points="47.4 40.15 45.3 33.39 42.2 27.97 38.78 23.9 33.85 19.73 28.19 16.46 23.22 14.54 17.31 13.19 8.97 12.74 -1.93 12.99 -9.63 14.62 -16.14 17.35 -22.9 21.99 -27.94 27.41 -31.1 32.63 -33.13 38.27 -33.85 42.21 -33.96 45.36 -26.96 42.38 -17.41 40.49 -5.79 39.4 5.65 39.48 17.46 39.48 30.92 40.86 37.29 42.08 43.21 43.98 47.74 45.58 47.4 40.15"/>
  <path class="cls-5" d="m117.61,229.16v-91.84s-.85-8.6-.85-8.6l-2.38-11.85-4.6-13.57-4.97-10.25-6.07-9.65-7.13-8.98-6.5-6.69-6.37-5.53-10.14-7.17-11.05-5.96-9.83-3.49-8.31-2.95-8.5-1.77-9.16-1.09-9.86-.29H-2.18s-11.05.33-11.05.33l-9.67,1.6-8.63,2.64-5.6,2.39-6.88,3.77-6.44,4.52-5.91,5.21-5.71,6.32-3.74,5.12-3.9,6.61-2.64,5.7-1.91,5.22-2.19,8.61-1.01,7.56-.23,11.13v15.04s0,10.62,0,10.62v2.91s0,.78,0,.78c0,.28,0,6.9,0,7.27,0,.23,0,14.57,0,15.2v22.58s0,25.83,0,25.83c0,1.86,0,3.72,0,5.58,0,11.24,0,22.49,0,33.73.33,3.99.67,7.99,1,11.98l2.08,8.81,3.36,8.85,4.28,7.96,5.31,7.43,5.36,5.88,5.29,4.69,8.85,6.08,9.89,4.77,7.59,2.48,7.85,1.61,8.95.75H1.18s10.96.02,10.96.02l10.06-.33,6.58-.73,13.91-2.98,11.78-4.18,10.57-5.21,8.37-5.28,8.08-6.26,7.4-7,8.99-10.72,5.88-9,4.54-8.72,3.94-9.84,1.99-5.6,1.34-6.04,1.45-7.27.61-8.72Z"/>
  <path class="cls-8" d="m92.41,127.87c-.24-2.78-.68-4.77-1.34-7.71-.47-2.1-1.17-5.2-2.57-9.17-.73-2.08-1.78-5.01-3.69-8.61-1.71-3.23-3.34-5.54-4.81-7.6-.8-1.13-2.11-2.97-4.02-5.25-2.64-3.14-4.89-5.3-6.26-6.6-1.08-1.02-2.84-2.69-5.37-4.7-1.67-1.33-3.41-2.72-5.93-4.25-2.44-1.49-4.35-2.35-6.82-3.47-2.53-1.14-4.5-2.03-7.27-2.91-3.23-1.02-5.73-1.45-9.06-2.01-2.43-.41-4.6-.79-7.49-1.01-3.42-.26-3.58.02-11.18,0-2.9,0-5.52-.05-8.83-.11-2.81-.05-4.21-.07-5.81-.11-3.88-.09-4.67-.14-6.37-.11-.96.02-3.39.07-5.81.34-1.79.19-5.98.77-11.07,2.57-1.81.64-5.03,1.8-8.83,4.14-2.69,1.65-4.59,3.23-5.81,4.25-1.37,1.15-3.24,2.72-5.37,5.14-.79.91-2.72,3.18-4.7,6.48-.31.52-1.65,2.8-3.02,6.04-.75,1.77-1.73,4.13-2.46,7.38-.64,2.82-.79,5-.89,6.6-.27,4.18.19,4.98.22,11.4.01,2.09-.03,3.7-.11,6.93-.09,3.65-.17,4.68-.22,7.49-.06,3.31-.02,5.68,0,7.38.02,1.62.01,6.9,0,17.44-.02,14.11-.15,12.74-.11,21.24.03,8.54.16,9.21.22,19.57.02,2.9.01,7.53,0,16.66-.03,19.57-.07,25.81-.11,29.85-.01,1.53-.1,4.3-.11,9.84,0,1.76,0,3.72.45,6.26.11.64.41,1.85,1.01,4.25.82,3.32,1.24,5,1.57,6.04.77,2.48,1.19,3.8,2.12,5.48.43.77.55.86,3.13,4.36,2.65,3.59,2.45,3.39,3.13,4.25,1.04,1.3,2.47,3.07,4.58,5.03,2.06,1.91,3.82,3.1,5.37,4.14,1.82,1.22,3.63,2.43,6.26,3.58,1.6.7,2.88,1.1,4.7,1.68,1.32.42,3.06.96,5.37,1.45.94.2,3.21.68,5.93.89,3.63.29,6.4-.01,7.38-.11,6.23-.61,6.45.26,20.24,0,2.13-.04,6.84-.15,12.86-.67,4.68-.41,6.41-.74,7.94-1.12,1.11-.28,2.53-.69,9.28-3.58,5.03-2.15,7.54-3.23,9.17-4.14,3.86-2.16,6.51-4.29,8.39-5.81,1.76-1.43,4.97-4.17,8.5-8.16,6.98-7.9,10.64-15.54,12.19-19.12,1.8-4.16,2.84-7.71,3.35-9.61.61-2.26,1.22-4.97,1.68-8.05.13-.9.67-4.66.78-10.96.05-2.93-.05-3.31-.22-10.17-.16-5.96-.25-9.54-.22-14.09.03-5.37.19-5.22.22-11.29.02-3.54-.03-4.9-.11-11.85-.08-6.3-.11-9.45-.11-11.96,0-7.57.17-8.86.22-19.45.02-3.8,0-5.94,0-6.93-.03-5.27-.12-5.44-.11-9.06,0-5.76.21-5.91,0-8.39Z"/>
  <ellipse class="cls-3" cx="5.65" cy="116.19" rx="19.36" ry="21.43"/>
  <ellipse class="cls-3" cx="5.65" cy="251.67" rx="19.36" ry="21.43"/>
  <path class="cls-2" d="m-1.25,200.61c-3.6-2.9-6.44-7.6-6.44-16.97,0-9.37,2.84-14.07,6.44-16.97"/>
  <path class="cls-1" d="m-19.85,85.52H59.95c57.33,0,103.88,46.55,103.88,103.88v20.28c0,39.36-31.95,71.31-71.31,71.31H-52.42c-39.36,0-71.31-31.95-71.31-71.31v-20.28c0-57.33,46.55-103.88,103.88-103.88Z" transform="translate(203.31 163.2) rotate(90)"/>
  <path class="cls-1" d="m-28.98,110.86h98.07c38.51,0,69.77,31.26,69.77,69.77v28.53c0,25.66-20.83,46.49-46.49,46.49H-52.26c-25.66,0-46.49-20.83-46.49-46.49v-28.53c0-38.51,31.26-69.77,69.77-69.77Z" transform="translate(203.31 163.2) rotate(90)"/>
  <g>
    <path class="cls-1" d="m113,174.49h27.87c10.1,0,18.3,8.2,18.3,18.3h-64.48c0-10.1,8.2-18.3,18.3-18.3Z" transform="translate(310.58 56.7) rotate(90)"/>
    <polyline class="cls-1" points="160.59 189.17 136.48 189.17 136.48 178.12 160.7 178.12"/>
    <circle class="cls-1" cx="169.91" cy="183.64" r="11.16"/>
  </g>
</svg>